<svg xmlns="http://www.w3.org/2000/svg" viewBox="0 0 112.09 106.1"><defs><style>.cls-1{fill:none;stroke:#fff;stroke-miterlimit:10;stroke-width:0.1px;}</style></defs><g id="Layer_2" data-name="Layer 2"><g id="Layer_1-2" data-name="Layer 1"><path class="cls-1" d="M103.61,58.8c6.14,14.14-17,10.92-19.68,14.64C80.87,77.61,104.41,95,91.2,104.82c-9.19,6.83-28.26-17-39.56-15.37C43.29,90.69,40.82,104,32.49,100.52c-11.12-4.61,13.92-25.42-7-25.8C15.11,74.53,3.63,63.29,3.51,54,3.4,45.25,26.73,38.38,26.73,32.9,26.73,15.38-1.65,10,6.43,4,26.51-11,40.19,56.77,53.64,5.11,56.8-7,67.82,17.76,73,22.82c8.54,8.4,24.11-10.51,38.41,1.41C115.25,27.46,100.75,52.21,103.61,58.8Z"/><path class="cls-1" d="M53.42,5.12C56.6-6.19,67.52,17.55,72.77,22.34c8.76,8,24.26-10.5,37.69.82C113.84,26,100.13,51,103.89,58.29c6.9,13.38-16.74,10.62-19.62,14.39-.58.75-.29,1.92.47,3.4,3.5,6.77,17.49,19.73,7,27.67-6,4.57-17-4.5-26.22-9.58-4.84-2.66-9.78-4.85-13.77-4.31a12.44,12.44,0,0,0-6.55,3c-4.4,3.7-7.9,10.07-14,7.38C20.22,95.45,44.36,75.5,24.77,74.65,15.06,74.22,4.33,63.14,4.16,53.82,4,45,25.85,38.43,25.66,33,25.09,16-1.58,10.45,6.47,4.37,26.12-10.4,39.74,53.72,53.42,5.12Z"/><path class="cls-1" d="M53.2,5.14c3.21-10.49,14,12.19,19.37,16.72,9,7.6,24.43-10.5,37,.23,2.88,2.46-10.08,27.67-5.39,35.68C111.6,70.46,87.65,68.1,84.61,71.91c-.59.75-.35,1.9.37,3.36,3.3,6.77,17.46,19.57,7.27,27.41-6.06,4.66-17.78-4.79-26.62-8.86-4.65-2.15-9.72-4.06-13.8-3.56a14.33,14.33,0,0,0-6.93,2.47c-4.64,3.29-8.69,10.13-15.1,7.2C19.06,95,42.3,75.92,24,74.58,15,73.92,5,63,4.82,53.68,4.59,44.81,25,38.49,24.59,33.05,23.47,16.57-1.51,10.85,6.5,4.75,25.69-9.86,39.29,50.65,53.2,5.14Z"/><path class="cls-1" d="M53,5.15c3.24-9.67,14,12,19.39,16.23C81.58,28.58,97,10.86,108.64,21c2.38,2.07-9.88,27.48-4.2,36.24,7.8,12.05-16.28,10-19.48,13.89-.62.74-.41,1.88.25,3.31,3.12,6.77,17.44,19.41,7.57,27.14-6.08,4.77-18.54-5.06-27-8.14-4.46-1.62-9.64-3.26-13.81-2.79-2.93.33-5.16.67-7.32,2-4.86,2.88-9.47,10.2-16.16,7-10.56-5,11.79-23.3-5.17-25.12C15,73.62,5.74,62.84,5.47,53.54c-.28-9,18.61-15,18.05-20.42-1.64-15.94-25-21.85-17-28C25.28-9.28,38.82,47.55,53,5.15Z"/><path class="cls-1" d="M52.77,5.17C56-3.69,66.64,16.91,72.17,20.9,81.61,27.7,97,10.33,107.73,20c1.88,1.69-9.71,27.28-3,36.8,8.06,11.46-16,9.72-19.42,13.64-.64.74-.46,1.85.14,3.26,2.93,6.78,17.43,19.26,7.87,26.88C87.2,105.4,74,95.18,65.86,93.1c-4.28-1.1-9.57-2.46-13.83-2-3.09.32-5.4.3-7.71,1.44C39.26,95,34.06,102.79,27.1,99.34c-10.38-5.16,11.06-22.59-4.57-24.9-7.62-1.12-16.09-11.75-16.4-21-.34-9,17.07-14.77,16.32-20.2C20.31,17.8-1.38,11.68,6.57,5.5,24.87-8.71,38.35,44.43,52.77,5.17Z"/><path class="cls-1" d="M52.55,5.18C55.83-2.88,66.35,16.7,72,20.42c9.67,6.39,25.1-10.69,34.83-1.54,1.39,1.3-9.57,27.1-1.82,37.36,8.24,10.91-15.82,9.42-19.34,13.38-.66.74-.53,1.84,0,3.22,2.73,6.78,17.41,19.11,8.15,26.62-6.12,5-20.07-5.64-27.85-6.72-4.1-.58-9.51-1.67-13.85-1.26-3.25.3-5.63-.06-8.1.91C38.77,94.48,33,102.76,25.76,99c-10.21-5.26,10.32-21.87-4-24.67C14.85,73,7.16,62.54,6.78,53.25c-.37-9.11,15.55-14.56,14.6-20C18.77,18.43-1.3,12.1,6.61,5.88,24.46-8.14,37.87,41.27,52.55,5.18Z"/><path class="cls-1" d="M52.33,5.2c3.31-7.28,13.73,11.28,19.45,14.74,9.91,6,25.54-11,34.12-2.12.89.91-9.46,26.91-.63,37.91,8.35,10.4-15.59,9.12-19.28,13.13-.68.73-.59,1.81-.08,3.17,2.53,6.79,17.41,19,8.45,26.36-6.14,5.07-20.86-5.92-28.26-6-3.93,0-9.44-.87-13.88-.5-3.4.29-5.85-.42-8.48.4C38.3,94,31.9,102.74,24.41,98.74,14.37,93.39,34,77.6,21,74.31,14.79,72.72,7.87,62.39,7.44,53.11s14-14.34,12.86-19.77C17.25,19.06-1.23,12.51,6.65,6.26,24.05-7.56,37.38,38.07,52.33,5.2Z"/><path class="cls-1" d="M52.11,5.22C55.46-1.3,65.77,16.27,71.58,19.46,81.73,25,96.42,9.44,105,16.75c.29.62-9.39,26.75.56,38.47,8.42,9.92-15.36,8.83-19.22,12.87-.69.74-.64,1.8-.18,3.14,2.33,6.79,17.39,18.82,8.74,26.09-6.16,5.17-21.65-6.2-28.68-5.3-3.76.48-9.37-.08-13.89.27-3.56.27-6.08-.78-8.87-.12-5.62,1.33-12.63,10.55-20.38,6.28C13.19,93,31.87,78,20.28,74.24,14.71,72.42,8.58,62.24,8.09,53S20.61,38.84,19.23,33.41C15.76,19.69-1.16,12.93,6.68,6.64,23.65-7,36.9,34.82,52.11,5.22Z"/><path class="cls-1" d="M51.9,5.23C55.29-.53,65.49,16.05,71.38,19c10.39,5.16,24.94-10,32.7-3.3-.23.25-9.36,26.62,1.74,39,8.47,9.46-15.12,8.53-19.14,12.62-.72.73-.71,1.77-.3,3.09,2.13,6.81,17.39,18.68,9,25.83-6.17,5.28-22.44-6.47-29.08-4.59-3.59,1-9.3.72-13.91,1-3.72.25-6.3-1.14-9.26-.64-5.79,1-13.42,10.64-21.44,6.09-9.72-5.51,8-19.71-2.19-24C14.62,72.11,9.28,62.09,8.75,52.83s11-13.91,9.41-19.35C14.3,20.32-1.09,13.35,6.72,7,23.25-6.4,36.43,31.51,51.9,5.23Z"/><path class="cls-1" d="M51.68,5.25c3.45-5,13.52,10.58,19.5,13.25,10.64,4.75,25-9.88,32-3.89-.74-.12-9.35,26.52,2.93,39.59,8.48,9-14.89,8.23-19.08,12.37-.73.72-.77,1.75-.41,3,1.93,6.82,17.39,18.54,9.33,25.57-6.19,5.38-23.24-6.72-29.49-3.88-3.43,1.55-9.24,1.51-13.94,1.8-3.87.24-6.52-1.48-9.64-1.15-6,.61-14.22,10.74-22.49,5.91-9.57-5.59,7.19-19-1.6-23.76C14.51,71.8,10,61.94,9.4,52.68,8.81,43.25,18.91,39,17.09,33.55,12.87,21-1,13.77,6.76,7.39,22.84-5.81,36,28.12,51.68,5.25Z"/><path class="cls-1" d="M51.46,5.26C55.75,1.66,64.92,15.61,71,18c10.89,4.33,25.15-9.81,31.27-4.48C101,13.05,92.88,40,106.38,53.69c8.48,8.6-14.65,7.94-19,12.11a2.88,2.88,0,0,0-.52,3c1.72,6.84,17.39,18.41,9.61,25.31-6.19,5.49-24-7-29.9-3.17-3.25,2.1-9.16,2.3-14,2.57-4,.22-6.74-1.82-10-1.68-6.13.28-15,10.85-23.54,5.73C9.62,91.91,25.39,79.2,18,74c-3.65-2.56-7.35-12.24-8-21.49-.65-9.51,8-13.46,6-18.92-4.56-12-17-19.43-9.23-25.85C22.45-5.22,39.62,27.3,51.46,5.26Z"/><path class="cls-1" d="M51.24,5.28c4.41-2.75,13.4,10.1,19.55,12.26C81.92,21.44,96,7.8,101.34,12.47c-1.76-.86-9.43,26.42,5.31,40.71,8.48,8.2-14.41,7.64-18.94,11.86A2.9,2.9,0,0,0,87.08,68c1.51,6.86,17.39,18.28,9.91,25-6.21,5.61-24.8-7.19-30.31-2.45-3.08,2.65-9.1,3.09-14,3.33-4.19.21-7-2.15-10.43-2.19-6.31-.06-15.81,11-24.59,5.54-9.26-5.71,5.5-17.75-.4-23.3-3-2.85-5.9-12.32-6.58-21.56C10,42.81,17.26,39.16,15,33.7,10.08,22.2-.87,14.61,6.83,8.15,22.05-4.64,39.56,24.35,51.24,5.28Z"/><path class="cls-1" d="M51,5.29c4.51-1.89,13.33,9.86,19.56,11.77C82,20.53,95.94,7.39,100.43,11.4c-2.28-1.23-9.52,26.44,6.5,41.26,8.45,7.83-14.18,7.36-18.87,11.61a2.89,2.89,0,0,0-.74,2.91C88.6,74.06,104.71,85.34,97.52,92c-6.22,5.73-25.58-7.42-30.72-1.74-2.91,3.2-9,3.89-14,4.1-4.35.19-7.2-2.49-10.82-2.71C35.5,91.22,25.38,102.69,16.34,97s4.66-17.23.2-23.07c-2.42-3.18-4.45-12.41-5.17-21.64-.77-9.67,5.08-13,2.5-18.49C8.71,22.81-.79,15,6.86,8.52,21.65-4,39.51,21.4,51,5.29Z"/><path class="cls-1" d="M50.81,5.31c4.63-1,13.27,9.61,19.58,11.26C82,19.62,95.85,7,99.52,10.33c-2.79-1.6-9.65,26.49,7.69,41.82,8.43,7.45-13.94,7.06-18.81,11.36a3,3,0,0,0-.85,2.86c1.06,6.9,17.4,18,10.49,24.52-6.22,5.84-26.33-7.65-31.13-1-2.72,3.76-9,4.68-14,4.86-4.51.17-7.42-2.81-11.2-3.22C35,90.78,24.28,102.7,15,96.67c-9-5.82,3.87-16.77.8-22.84C14,70.29,12.8,61.34,12,52.12c-.82-9.75,3.62-12.83.78-18.28C7.37,23.41-.72,15.46,6.9,8.9,21.26-3.45,39.45,18.45,50.81,5.31Z"/><path class="cls-1" d="M50.59,5.32c4.75-.18,13.21,9.37,19.6,10.77C82.09,18.7,95.75,6.56,98.6,9.26c-3.3-2-9.8,26.6,8.88,42.38,8.4,7.09-13.7,6.77-18.74,11.11a3,3,0,0,0-.95,2.81c.83,6.92,17.41,17.92,10.78,24.26-6.23,6-27.09-7.89-31.54-.32C64.5,93.81,58.14,95,53,95.13c-4.67.15-7.65-3.14-11.59-3.74-6.86-1-18.24,11.32-27.76,5C4.82,90.51,16.8,80,15,73.76,13.93,69.83,13.5,61.19,12.68,52c-.88-9.83,2.17-12.63-.95-18.07C6,24-.64,15.88,6.94,9.28,20.87-2.86,39.39,15.51,50.59,5.32Z"/><path class="cls-1" d="M50.37,5.34C55.23,6,63.52,14.46,70,15.61c12.15,2.17,25.67-9.46,27.7-7.41-3.81-2.35-10,26.76,10.07,42.93C116.13,57.88,94.3,57.61,89.09,62A3,3,0,0,0,88,64.75c.59,7,17.43,17.8,11.08,24s-27.85-8.12-31.95.39C64.81,94,58.32,95.4,53.1,95.54c-4.83.12-7.88-3.47-12-4.26-7-1.37-19,11.45-28.82,4.8-8.68-5.91,2.53-16,2-22.39-.36-4.31-.09-12.65-1-21.86-.93-9.9.74-12.43-2.67-17.85C4.73,24.57-.56,16.31,7,9.66,20.47-2.26,39.34,12.56,50.37,5.34Z"/><path class="cls-1" d="M50.16,5.35c5,1.53,13.08,8.87,19.63,9.78,12.4,1.73,25.77-9.39,27-8-4.33-2.72-10.23,27,11.26,43.49,8.34,6.41-13.23,6.19-18.61,10.6A3.14,3.14,0,0,0,88.25,64c.36,7,17.44,17.67,11.37,23.73-6.22,6.2-28.59-8.37-32.35,1.1-2.16,5.41-8.76,7-14.08,7.16-5,.11-8.11-3.79-12.36-4.78C33.59,89.49,21,102.75,11,95.79c-8.55-6,2-15.48,2.58-22.17A110.47,110.47,0,0,0,14,51.69c-1-10-.68-12.25-4.39-17.63C3.43,25.12-.48,16.73,7,10,20.09-1.66,39.28,9.61,50.16,5.35Z"/><path class="cls-1" d="M49.94,5.37C55,7.75,63,14,69.6,14.65c12.64,1.28,25.87-9.32,26.27-8.59C91,3,85.38,33.33,108.31,50.11c8.32,6.08-13,5.9-18.53,10.35a3.19,3.19,0,0,0-1.29,2.68c.1,7,17.46,17.56,11.66,23.47C93.93,92.94,70.81,78,67.38,88.42c-2,6-8.69,7.84-14.09,7.93-5.14.08-8.34-4.11-12.75-5.3-7.44-2-20.7,11.73-30.93,4.44C1.2,89.49,11,80.56,12.8,73.56a63.49,63.49,0,0,0,1.84-22c-1.07-10.06-2.1-12.08-6.12-17.42-6.38-8.47-8.92-17-1.47-23.72C19.7-1.06,39.22,6.66,49.94,5.37Z"/><path class="cls-1" d="M49.72,5.38c5.2,3.24,13,8.36,19.68,8.79C82.29,15,95.37,4.92,95,5,89.6,1.52,84.18,32.62,108.59,49.6c8.3,5.77-12.74,5.61-18.47,10.09a3.35,3.35,0,0,0-1.4,2.64c-.16,7,17.48,17.45,12,23.2C94.47,92,70.59,76.68,67.5,88.06c-1.76,6.5-8.62,8.62-14.11,8.69-5.3.07-8.58-4.43-13.15-5.81-7.63-2.31-21.52,11.88-32,4.25-8.29-6,.88-14.33,3.78-21.7a46.23,46.23,0,0,0,3.24-22.08c-1.12-10.15-3.5-11.93-7.85-17.21-6.59-8-7.76-16.61-.36-23.41C19.32-.46,39.17,3.72,49.72,5.38Z"/><path class="cls-1" d="M49.5,5.4c5.76,3.43,12.9,8.1,19.7,8.29,13.14.37,26-9.1,24.84-9.77C87.94.48,82.94,32,108.87,49.09c8.28,5.46-12.51,5.32-18.4,9.84A3.47,3.47,0,0,0,89,61.52c-.43,7,17.5,17.34,12.24,22.94C95,91.07,70.37,75.36,67.62,87.7c-1.57,7-8.56,9.4-14.13,9.46S44.67,92.41,40,90.83c-7.84-2.62-22.36,12-33,4.07-8.15-6.08.32-13.69,4.38-21.48,2.87-5.51,5.69-13,4.65-22.15C14.77,41,11,39.47,6.37,34.27-.44,26.69-.24,18,7.12,11.17,18.93.15,39.73-.43,49.5,5.4Z"/><path class="cls-1" d="M49.29,5.41C55,10.08,62.12,13.26,69,13.21c13.39-.09,26.16-9.07,24.13-10.36-6.45-4.09-11.45,28.56,16,45.73,8.28,5.17-12.25,5-18.33,9.58a3.68,3.68,0,0,0-1.62,2.55c-.7,7,17.53,17.23,12.54,22.68-6.18,6.75-31.56-9.35-34,4-1.36,7.58-8.48,10.2-14.15,10.22s-9.06-5.07-13.92-6.84c-8-2.94-23.2,12.18-34.08,3.88-8-6.12-.28-13,5-21.25,3.66-5.74,7.15-13.06,6.05-22.23-1.23-10.3-6.29-11.67-11.3-16.78-7-7.17-5.44-15.87,1.85-22.8C18.57.78,39.45-2.69,49.29,5.41Z"/><path class="cls-1" d="M109.42,48.07c9.56,5.64-19,4.58-20,11.83-1,7,17.56,17.12,12.83,22.42-6.14,6.89-32.32-9.61-34.4,4.66-1.18,8.12-8.42,11-14.17,11s-9.3-5.39-14.31-7.36c-8.25-3.26-24,12.34-35.14,3.7C-9.1,83.92,20.06,73.47,17.26,51,16,40.6,9.58,39.42,4.23,34.42-14,17.36,32.35-12.1,49.07,5.43c16.35,17.14,47.49-.76,43.15-3.65C85.33-2.8,80.39,30.92,109.42,48.07Z"/></g></g></svg>